<svg class="svg-icon" style="width: 1em;height: 1em;vertical-align: middle;fill: currentColor;overflow: hidden;" viewBox="0 0 1024 1024" version="1.1" xmlns="http://www.w3.org/2000/svg"><path d="M896 471.488V277.333333a21.333333 21.333333 0 0 0-21.333333-21.333333H149.333333a21.333333 21.333333 0 0 0-21.333333 21.333333v194.154667A106.837333 106.837333 0 0 0 42.666667 576v170.666667a21.333333 21.333333 0 0 0 42.666666 0v-64h853.333334v64a21.333333 21.333333 0 0 0 42.666666 0v-170.666667a106.837333 106.837333 0 0 0-85.333333-104.512zM170.666667 298.666667h682.666666v170.666666h-85.333333v-64a21.333333 21.333333 0 0 0-21.333333-21.333333h-170.666667a21.333333 21.333333 0 0 0-21.333333 21.333333v64h-85.333334v-64a21.333333 21.333333 0 0 0-21.333333-21.333333h-170.666667a21.333333 21.333333 0 0 0-21.333333 21.333333v64H170.666667z m554.666666 170.666666h-128v-42.666666h128z m-298.666666 0h-128v-42.666666h128zM85.333333 576a64.064 64.064 0 0 1 64-64h725.333334a64.064 64.064 0 0 1 64 64v64H85.333333z" fill="#000" /></svg>