<svg class="svg-icon" style="width: 3em;height: 2em;vertical-align: middle;fill: currentColor;overflow: hidden;" viewBox="0 0 1024 1024" version="1.1" xmlns="http://www.w3.org/2000/svg"><path d="M723.2 1024c-16.1 0-29.1-13.1-29-29.1 0-16.1 13.1-29.1 29.1-29 16 0 29 13 29 29 0 16.1-13 29.1-29.1 29.1z m-422.4 0c-16.1 0-29.1-13-29.1-29 0-16.1 13-29.1 29.1-29.2 16.1 0 29.1 13 29.2 29.1-0.1 16-13.1 29.1-29.2 29.1z m211.2 0c-1.9 0-3.8-0.2-5.7-0.6-1.9-0.4-3.7-0.9-5.5-1.7-1.8-0.7-3.4-1.6-5-2.7-3.2-2.1-5.9-4.8-8-8-1.1-1.6-2-3.3-2.7-5-0.7-1.8-1.3-3.6-1.7-5.4-0.4-1.9-0.6-3.8-0.6-5.7 0-1.9 0.2-3.8 0.6-5.7 0.4-1.9 0.9-3.7 1.7-5.4 0.7-1.7 1.6-3.4 2.7-5 1-1.6 2.3-3.1 3.6-4.4 2.7-2.7 5.9-4.8 9.4-6.3 1.8-0.7 3.6-1.3 5.5-1.7 3.8-0.7 7.6-0.7 11.4 0 1.9 0.4 3.7 1 5.4 1.7 1.8 0.7 3.4 1.6 5 2.6 1.6 1.1 3.1 2.3 4.4 3.6 1.4 1.3 2.6 2.8 3.6 4.4 1.1 1.6 2 3.2 2.7 5 0.7 1.8 1.3 3.6 1.7 5.4 0.4 1.9 0.6 3.8 0.6 5.7 0 7.7-3.1 15.1-8.5 20.6-1.3 1.4-2.8 2.6-4.4 3.6-4.8 3.3-10.4 5-16.2 5z m211.2-87.2c-16.1 0-29.1-13-29.1-29.1v-29h-153v29c0 16.1-13 29.1-29.1 29.1s-29.1-13-29.1-29.1v-29h-153v29c0 16.1-13 29.1-29.1 29.1s-29.1-13-29.1-29.1v-58.1c0-16.1 13.1-29.1 29.1-29.1h182.1V681H306c-71.8 0-130.1-58.2-130.3-130V359.1c0.1-44.1 35.5-79.9 79.6-80.6C243.7 136.8 349.2 12.5 491 0.9s266.1 93.9 277.7 235.7c1.1 14 1.1 28 0 42 44.1 0.6 79.5 36.5 79.6 80.6V551c-0.1 71.8-58.4 130-130.3 130H541.1v139.5h182.1c16.1 0 29.1 13 29.1 29.1v58.1c0 16-13 29-29.1 29.1zM256.4 336.7c-12.4 0-22.5 10-22.5 22.4V551c0.1 39.7 32.3 71.9 72 71.9H718c39.7 0 71.9-32.2 72-71.9V359.1c0-12.4-10.1-22.4-22.5-22.4-4.9 0-9.7 1.6-13.6 4.6l-0.1 0.1-0.1 0.1c-2 1.6-3.8 3.5-5.1 5.6l-0.1 0.1-0.1 0.1c-0.4 0.6-0.7 1.2-1 1.8l-0.3 0.6c-0.2 0.5-0.5 1-0.7 1.6-0.1 0.2-0.2 0.5-0.3 0.7-0.2 0.5-0.3 1.1-0.5 1.6l-0.1 0.3c0 0.2-0.1 0.3-0.1 0.5-0.1 0.6-0.2 1.1-0.3 1.7v0.3c0 0.1 0 0.3-0.1 0.4-0.1 0.8-0.1 1.6-0.1 2.4v178c0 16.1-13.1 29.1-29.1 29.1H308c-16.1 0-29.1-13-29.1-29.1V359.1c0-0.8 0-1.6-0.1-2.5 0-0.1 0-0.2-0.1-0.4s0-0.2-0.1-0.4c-0.1-0.6-0.2-1.2-0.3-1.7 0-0.2-0.1-0.4-0.1-0.6v-0.2c-0.1-0.5-0.3-1-0.5-1.6-0.1-0.2-0.2-0.5-0.3-0.7-0.2-0.6-0.4-1.1-0.7-1.6l-0.1-0.2c0-0.1-0.1-0.2-0.2-0.3-0.3-0.6-0.7-1.2-1-1.8 0-0.1-0.1-0.1-0.1-0.2-1.4-2.1-3.1-4-5.1-5.6l-0.1-0.1-0.1-0.1c-3.9-2.8-8.7-4.4-13.6-4.4z m162.1 97.7c-42 0-77.1 32-81 73.8h349c-3.9-41.8-39-73.8-81-73.8h-187z m0-58.2h187c29.2 0 57.7 9.1 81.3 26.2v-43.3c0-1.2 0-2.4 0.1-4v-0.5-0.5c0.1-0.9 0.1-1.9 0.2-2.9 0-0.2 0-0.4 0.1-0.6 0-0.2 0-0.3 0.1-0.5 0.1-1.1 0.2-2 0.4-2.9 0-0.3 0.1-0.6 0.1-0.9 0.2-0.9 0.3-2 0.6-3.1l0.1-0.4 0.2-0.2c0.2-1 0.5-2.2 0.8-3.4 0-0.1 0-0.2 0.1-0.3 3.3-12.6 9.6-24.3 18.4-33.9l2.7-29.7c9.8-109.5-71-206.3-180.5-216.2-6-0.5-12.1-0.8-18.2-0.8-110-0.1-199.2 88.9-199.4 198.9 0 6 0.3 12.1 0.8 18.1l2.7 29.7c8.8 9.6 15.1 21.3 18.4 33.9v0.2c0.3 1.1 0.5 2.2 0.8 3.4l0.1 0.6c0.2 1.1 0.4 2.2 0.6 3.1 0 0.2 0 0.3 0.1 0.4 0 0.1 0 0.3 0.1 0.5 0.2 1 0.3 2 0.4 2.9v0.4c0 0.2 0.1 0.5 0.1 0.7 0.1 1 0.2 1.9 0.2 2.9v1.1c0.1 1.4 0.1 2.7 0.1 4v43.3c23.8-17.1 52.3-26.2 81.5-26.2z" fill="#000" /></svg>