<svg class="svg-icon" style="width: 1em;height: 1em;vertical-align: middle;fill: currentColor;overflow: hidden;" viewBox="0 0 1024 1024" version="1.1" xmlns="http://www.w3.org/2000/svg"><path d="M650.62912 61.44a77.60896 77.60896 0 0 1 77.18912 69.57056l25.6512 246.19008c7.76192 74.60864-46.40768 141.38368-121.01632 149.15584-4.67968 0.49152-9.3696 0.73728-14.06976 0.73728l-82.13504-0.01024v29.10208h174.62272a29.10208 29.10208 0 0 1 29.10208 29.11232v58.38848h21.1456c10.22976 0 18.60608-7.91552 19.3536-17.95072l0.0512-1.45408V478.58688a77.6192 77.6192 0 0 1 75.18208-77.568l2.42688-0.04096h78.30528a29.10208 29.10208 0 0 1 1.71008 58.1632l-1.71008 0.04096h-78.30528c-10.24 0-18.61632 7.91552-19.3536 17.95072l-0.0512 1.45408v145.69472a77.6192 77.6192 0 0 1-75.19232 77.57824l-2.41664 0.03072h-224.8704v58.27584c52.5312 2.7648 107.78624 27.81184 165.91872 74.22976l4.62848 3.7376c3.54304 2.88768 6.06208 6.57408 7.49568 10.58816a58.2144 58.2144 0 1 1-53.6064 14.88896c-45.40416-34.12992-86.92736-52.1728-124.43648-54.84544v46.24384a58.20416 58.20416 0 1 1-58.2144 0l0.01024-46.592c-38.59456 0-81.59232 16.83456-128.8704 51.3024a58.20416 58.20416 0 1 1-59.8528-7.41376c1.03424-5.376 3.8912-10.4448 8.47872-14.17216 63.42656-51.74272 123.4432-78.21312 180.24448-78.21312v-58.03008H256.53248a77.6192 77.6192 0 0 1-77.57824-75.19232l-0.03072-2.41664V478.58688c0-10.22976-7.91552-18.60608-17.96096-19.3536l-1.44384-0.0512H80.30208a29.10208 29.10208 0 0 1-1.71008-58.1632l1.71008-0.04096h79.21664a77.6192 77.6192 0 0 1 77.568 75.19232l0.04096 2.41664v145.69472c0 10.24 7.91552 18.61632 17.95072 19.3536l1.45408 0.0512h17.78688v-58.38848a29.10208 29.10208 0 0 1 29.11232-29.10208l174.61248-0.01024v-29.10208h-82.1248c-75.008 0-135.81312-60.79488-135.81312-135.80288 0-4.7104 0.24576-9.40032 0.72704-14.08l25.6512-246.19008A77.60896 77.60896 0 0 1 363.6736 61.44h286.95552zM507.14624 886.02624a19.4048 19.4048 0 1 0 0 38.8096 19.4048 19.4048 0 0 0 0-38.8096z m194.02752 0a19.4048 19.4048 0 1 0 0 38.8096 19.4048 19.4048 0 0 0 0-38.8096z m-388.0448 0a19.4048 19.4048 0 1 0 0 38.8096 19.4048 19.4048 0 0 0 0-38.8096z m388.0448-291.0208H313.12896v48.49664h388.0448v-48.50688zM650.62912 119.63392H363.6736c-9.4208 0-17.38752 6.73792-19.07712 15.85152l-0.22528 1.536-25.64096 246.20032a77.60896 77.60896 0 0 0 74.77248 85.6064l2.41664 0.04096h222.464a77.60896 77.60896 0 0 0 77.40416-83.24096l-0.21504-2.4064-25.6512-246.19008A19.4048 19.4048 0 0 0 652.1856 119.7056l-1.55648-0.06144z" fill="#050505" /><path d="M371.33312 226.3552m29.10208 0l213.42208 0q29.10208 0 29.10208 29.10208l0 0q0 29.10208-29.10208 29.10208l-213.42208 0q-29.10208 0-29.10208-29.10208l0 0q0-29.10208 29.10208-29.10208Z" fill="#050505" /></svg>