<svg class="svg-icon" fill='#fff' style="width: 1em;height: 1em;vertical-align: middle;fill: currentColor;overflow: hidden;" viewBox="0 0 1024 1024" version="1.1" xmlns="http://www.w3.org/2000/svg"><path fill='#fff' d="M840.82888 414.4A66.72 66.72 0 0 0 783.86888 379.2H599.22888l57.6-300.8a44.32 44.32 0 0 0 1.6-14.4 64 64 0 0 0-62.4-64h-6.4a52 52 0 0 0-27.2 11.2 91.52 91.52 0 0 0-12.8 11.2c-1.6 1.6-1.6 3.2-3.2 4.8L188.02888 502.4a64 64 0 0 0-4.8 67.2 66.72 66.72 0 0 0 57.6 35.2l184 1.6L367.86888 948.8a64 64 0 0 0 38.4 70.4 72.48 72.48 0 0 0 25.6 4.8 58.88 58.88 0 0 0 49.6-27.2l358.4-513.6a80 80 0 0 0 0.96-68.8z m-412.8 542.4l72-417.6L239.86888 537.6 596.02888 60.8l-72 379.2 260.8 1.6z"  /></svg>