<svg class="svg-icon"  style="width: 1em; height: 1em;vertical-align: middle;fill: currentColor;overflow: hidden;" viewBox="0 0 1024 1024" version="1.1" xmlns="http://www.w3.org/2000/svg" fill='#fff' ><path d="M853.333333 597.333333C853.333333 597.333333 853.333333 597.333333 853.333333 597.333333L170.666667 597.333333c-12.8 0-25.6-4.266667-34.133333-17.066667C128 571.733333 128 558.933333 128 546.133333l128-512C260.266667 12.8 277.333333 0 298.666667 0l426.666667 0c21.333333 0 38.4 12.8 42.666667 34.133333l128 503.466667C896 541.866667 896 546.133333 896 554.666667 896 580.266667 878.933333 597.333333 853.333333 597.333333zM226.133333 512l571.733333 0L691.2 85.333333 332.8 85.333333 226.133333 512z" fill='#fff' /><path d="M725.333333 1024 298.666667 1024c-25.6 0-42.666667-17.066667-42.666667-42.666667s17.066667-42.666667 42.666667-42.666667l426.666667 0c25.6 0 42.666667 17.066667 42.666667 42.666667S750.933333 1024 725.333333 1024z" fill='#fff' /><path d="M512 1024c-25.6 0-42.666667-17.066667-42.666667-42.666667L469.333333 554.666667c0-25.6 17.066667-42.666667 42.666667-42.666667s42.666667 17.066667 42.666667 42.666667l0 426.666667C554.666667 1006.933333 537.6 1024 512 1024z" fill='#fff' /></svg>