<svg class="svg-icon" style="width: 1em; height: 1em;vertical-align: middle;fill: currentColor;overflow: hidden;" viewBox="0 0 1024 1024" version="1.1" xmlns="http://www.w3.org/2000/svg"><path d="M904.3 427.7c-3.7-3.8-8.8-5.9-14.1-5.9l-67.2-0.2 1.2-147c0.3-36.2-13.5-70.2-38.9-96-25.4-25.7-59.3-40-95.4-40.2L462 137.2c-0.2-0.4-0.6-0.6-1.2-0.6s-1 0.3-1.2 0.6l-81-0.4c-36-0.2-69.9 13.6-95.5 38.9-25.6 25.3-39.9 59-40.2 95l-1.2 147.7-63.4-0.2h-0.1c-11 0-19.9 8.9-20 19.9l-1.7 327.3c0 5.3 2.1 10.4 5.8 14.2 3.7 3.8 8.8 5.9 14.1 5.9l60.1 0.3v61.8c0 11 9 20 20 20s20-9 20-20V786l501.9 2.6v59c0 11 9 20 20 20s20-9 20-20v-58.8l69.9 0.4h0.1c11 0 19.9-8.9 20-19.9l1.7-327.3c0-5.4-2.1-10.5-5.8-14.3zM282.8 271c0.4-52.1 43-94.2 95-94.2h0.5l311.3 1.6c25.4 0.1 49.3 10.2 67.2 28.3 17.9 18.1 27.6 42.1 27.4 67.5L783 421.1l-30.1 0.2c-0.3 0-0.6 0-1 0.1-0.3 0-0.7 0-1 0.1-0.3 0-0.7 0.1-1 0.2-0.3 0.1-0.7 0.1-1 0.2s-0.6 0.2-1 0.2l-0.9 0.3-0.9 0.3-0.9 0.3c-0.3 0.1-0.6 0.3-0.9 0.4-0.3 0.1-0.6 0.3-0.8 0.4-0.3 0.2-0.6 0.4-0.9 0.5-0.2 0.2-0.5 0.3-0.7 0.5l-0.9 0.6c-0.2 0.2-0.5 0.3-0.7 0.5-0.3 0.2-0.5 0.5-0.8 0.7l-0.6 0.6c-0.3 0.3-0.5 0.5-0.7 0.8l-0.6 0.6-0.6 0.9c-0.2 0.2-0.3 0.4-0.5 0.7l-0.6 0.9c-0.1 0.2-0.3 0.5-0.4 0.7-0.2 0.3-0.3 0.6-0.5 1-0.1 0.3-0.3 0.5-0.4 0.8-0.1 0.3-0.2 0.7-0.4 1-0.1 0.3-0.2 0.5-0.3 0.8-0.1 0.4-0.2 0.7-0.3 1.1-0.1 0.3-0.2 0.5-0.2 0.8-0.1 0.4-0.1 0.8-0.2 1.3 0 0.2-0.1 0.5-0.1 0.7-0.1 0.7-0.1 1.3-0.1 2l-0.7 128.4-398-2.5 0.7-128.5c0-0.7 0-1.3-0.1-2 0-0.5-0.1-1-0.2-1.6 0-0.1 0-0.3-0.1-0.4-0.1-0.6-0.3-1.2-0.5-1.8v-0.1l-0.6-1.8c-0.2-0.6-0.5-1.1-0.8-1.6 0 0 0-0.1-0.1-0.1l-0.9-1.5c0-0.1-0.1-0.1-0.1-0.2-0.3-0.5-0.7-1-1-1.4 0-0.1-0.1-0.1-0.1-0.2-0.4-0.5-0.8-1-1.3-1.5-0.1-0.1-0.3-0.2-0.4-0.3l-1-1c-0.2-0.1-0.3-0.3-0.5-0.4-0.3-0.3-0.7-0.5-1.1-0.8-0.2-0.1-0.3-0.2-0.5-0.3-0.4-0.3-0.8-0.5-1.2-0.7-0.1-0.1-0.3-0.1-0.4-0.2-0.4-0.2-0.9-0.5-1.4-0.6-0.1-0.1-0.3-0.1-0.4-0.1-0.5-0.2-1-0.4-1.5-0.5-0.1 0-0.3-0.1-0.5-0.1-0.5-0.1-0.9-0.3-1.4-0.4-0.2 0-0.5-0.1-0.7-0.1-0.4-0.1-0.8-0.1-1.2-0.2-0.4 0-0.8 0-1.2-0.1h-0.8l-33.5-0.2 1.3-147.5z m585.7 477.9l-671.9-3.4 1.5-287.3 96.8 0.3-0.7 128.4c0 1.4 0.1 2.7 0.4 4 1.8 9.1 9.8 16 19.5 16.1l438 2.8h0.6c3.7-0.1 7.4-1.2 10.5-3.3 0.2-0.1 0.4-0.3 0.6-0.4 0.3-0.2 0.7-0.5 1-0.7 0.5-0.4 1-0.9 1.5-1.3 3.3-3.3 5.4-7.6 5.8-12.1 0.1-0.7 0.1-1.3 0.1-2l0.7-128.5 97.1 0.3-1.5 287.1z"  /></svg>